<?xml version="1.0" encoding="utf-8"?>
<!-- Generator: Adobe Illustrator 16.0.0, SVG Export Plug-In . SVG Version: 6.00 Build 0)  -->
<!DOCTYPE svg PUBLIC "-//W3C//DTD SVG 1.1//EN" "http://www.w3.org/Graphics/SVG/1.1/DTD/svg11.dtd">
<svg version="1.1"
	 id="Calque_1" xmlns:dc="http://purl.org/dc/elements/1.1/" xmlns:cc="http://creativecommons.org/ns#" xmlns:rdf="http://www.w3.org/1999/02/22-rdf-syntax-ns#" xmlns:svg="http://www.w3.org/2000/svg" xmlns:sodipodi="http://sodipodi.sourceforge.net/DTD/sodipodi-0.dtd" xmlns:inkscape="http://www.inkscape.org/namespaces/inkscape"
	 xmlns="http://www.w3.org/2000/svg" xmlns:xlink="http://www.w3.org/1999/xlink" x="0px" y="0px" width="595.281px" height="506px"
	 viewBox="0 0 595.281 506" enable-background="new 0 0 595.281 506" xml:space="preserve">
<g transform="translate(-146.72099,-393.20902)">
	<path fill="#4D83D3" d="M200.379,406.494c-29.646,0-53.657,24.011-53.657,53.657v323.761c0,29.646,24.011,53.658,53.657,53.658
		h178.351l-15.562,37.487c-5.069,12.364,4.03,24.151,17.381,24.151h127.625c13.348,0,22.451-11.787,17.381-24.151l-15.563-37.487
		h178.352c29.645,0,53.658-24.013,53.658-53.658V460.151c0.049-29.594-23.912-53.657-53.559-53.657H200.379L200.379,406.494z
		 M224.428,447.52h439.967c20.23,0,36.58,16.452,36.58,36.681v234.636c0,20.229-16.35,36.68-36.58,36.68H224.428
		c-20.229,0-36.58-16.449-36.58-36.68V484.201C187.847,463.972,204.199,447.52,224.428,447.52L224.428,447.52z M479.576,496.73
		c-2.586,0-4.754,0.091-6.566,0.319c-1.813,0.229-3.305,0.519-4.443,0.911c-1.139,0.41-2.008,0.947-2.627,1.616
		c-0.619,0.674-1.105,1.544-1.416,2.627L392.576,704.1c-0.465,1.344-0.66,2.555-0.519,3.539c0.136,1.031,0.733,1.901,1.821,2.525
		c1.087,0.619,2.782,1.105,4.848,1.417c2.071,0.317,4.724,0.521,7.983,0.521c2.69,0,4.858-0.092,6.567-0.318
		c1.709-0.229,3.156-0.52,4.345-0.911c1.188-0.41,2.103-0.993,2.728-1.617c0.62-0.674,1.102-1.489,1.517-2.526l71.846-201.998
		c0.361-1.343,0.561-2.504,0.41-3.538c-0.23-1.034-0.732-1.854-1.822-2.522c-1.088-0.619-2.576-1.102-4.646-1.412
		c-2.016-0.319-4.773-0.519-8.084-0.519L479.576,496.73z M513.024,546.245c-0.828-0.046-1.4,0.319-1.922,1.011
		c-0.52,0.725-0.906,1.932-1.111,3.639c-0.227,1.707-0.316,4.025-0.316,6.974c0,3.358,0.051,6.019,0.229,7.981
		c0.086,1.912,0.408,3.513,0.809,4.646c0.408,1.139,0.939,2.059,1.715,2.628s1.836,1.042,3.129,1.616l67.904,31.527l-69.318,32.539
		c-0.984,0.362-1.754,0.797-2.322,1.313c-0.52,0.521-0.9,1.385-1.211,2.522c-0.316,1.088-0.604,2.631-0.711,4.55
		c-0.137,1.911-0.229,4.521-0.229,7.78c0,2.381,0.137,4.407,0.316,5.961c0.139,1.554,0.543,2.765,1.113,3.537
		c0.521,0.83,1.092,1.211,1.922,1.316c0.828,0.091,1.84-0.136,2.928-0.71l92.26-45.673c0.518-0.229,1.051-0.692,1.516-1.316
		c0.465-0.619,0.752-1.394,1.012-2.427c0.318-1.034,0.557-2.341,0.709-3.839c0.229-1.498,0.229-3.283,0.229-5.355
		c0-4.139-0.273-7.227-0.91-9.297c-0.619-2.066-1.34-3.374-2.428-3.838l-92.357-46.078c-1.141-0.569-2.1-0.957-2.93-1.011h-0.023
		V546.245z M372.567,547.256l-92.057,45.775c-0.569,0.318-1.102,0.691-1.516,1.316c-0.465,0.567-0.802,1.442-1.01,2.426
		c-0.273,1.035-0.556,2.287-0.711,3.839c-0.227,1.553-0.227,3.388-0.227,5.457c0,4.084,0.318,7.126,0.805,9.194
		c0.57,2.071,1.339,3.42,2.427,4.039l92.259,45.979c1.243,0.568,2.203,0.956,3.032,1.011c0.774,0.046,1.348-0.319,1.917-1.011
		c0.464-0.725,0.802-1.932,1.01-3.639c0.273-1.657,0.41-4.024,0.41-6.973c0-3.363-0.05-6.064-0.228-8.084
		c-0.227-1.91-0.52-3.511-0.91-4.65c-0.41-1.138-0.943-2.059-1.717-2.627c-0.773-0.568-1.739-1.052-2.928-1.617l-68.005-31.526
		l69.319-32.438c0.983-0.463,1.752-0.945,2.322-1.41c0.569-0.465,0.952-1.289,1.316-2.428c0.318-1.088,0.519-2.633,0.605-4.549
		c0.088-1.912,0.228-4.521,0.228-7.781c0-4.813-0.41-7.996-1.416-9.601c-0.984-1.603-2.623-1.794-4.952-0.71L372.567,547.256z
		 M444.411,774.919c10.864,0,19.604,8.738,19.604,19.604s-8.74,19.604-19.604,19.604c-10.813,0-19.603-8.737-19.603-19.604
		C424.808,783.656,433.598,774.919,444.411,774.919z"/>
</g>
</svg>
