<?xml version="1.0" encoding="utf-8"?>
<!-- Generator: Adobe Illustrator 16.0.0, SVG Export Plug-In . SVG Version: 6.00 Build 0)  -->
<!DOCTYPE svg PUBLIC "-//W3C//DTD SVG 1.1//EN" "http://www.w3.org/Graphics/SVG/1.1/DTD/svg11.dtd">
<svg version="1.1" id="Calque_1" xmlns="http://www.w3.org/2000/svg" xmlns:xlink="http://www.w3.org/1999/xlink" x="0px" y="0px"
	 width="595.281px" height="459px" viewBox="0 0 595.281 459" enable-background="new 0 0 595.281 459" xml:space="preserve">
<title>all</title>
<path fill="#4D83D3" d="M363.3,182.85c-19.922,0.265-35.855,16.627-35.594,36.55c0.263,19.922,16.629,35.856,36.549,35.592
	c19.873-0.262,35.789-16.551,35.596-36.424c-0.195-19.923-16.506-35.914-36.428-35.719
	C363.382,182.849,363.341,182.849,363.3,182.85z"/>
<path fill="#4D83D3" d="M470.332,69.449H48.575C19.067,69.644-4.805,93.516-5,123.024v282.399
	c0.195,29.508,24.067,53.381,53.575,53.576h421.756c29.508-0.195,53.381-24.068,53.574-53.576V123.262
	C523.841,93.661,499.931,69.645,470.332,69.449z M492.357,405.425c-0.16,12.098-9.93,21.865-22.025,22.025h-38.158
	c-4.703-6.607-8.869-12.682-13.271-18.395c-16.512-21.471-33.1-42.881-49.768-64.23c-6.479-8.906-18.225-12.205-28.395-7.979
	c-6.445,1.785-12.5,4.752-17.859,8.752c-12.322,10.297-24.229,21.191-35.717,32.621c-8.572,8.631-15.834,18.514-23.811,27.68
	c-2.313,2.16-4.781,4.15-7.382,5.953c0-43.039,1.31-84.887-12.322-125.604l28.276,27.561c4.762-11.369,7.144-20.773,1.548-30.357
	c-5.596-9.584-15.299-11.906-25.776-16.073c14.585-6.972,30.564-10.535,46.729-10.417c-5.628-8.732-14.862-14.495-25.18-15.715
	c-17.858-1.547-26.609,10.477-35.717,23.813c-5.953-10.656-13.513-19.406-25.776-21.074c-11.74-1.347-23.328,3.556-30.538,12.918
	c15.828,1.52,31.119,6.541,44.765,14.703c-0.753,0.476-1.55,0.873-2.381,1.19c-9.054,1.166-17.446,5.362-23.811,11.905
	c-1.467,0.836-3.22,1.009-4.822,0.477c-8.945-2.828-18.71,0.126-24.585,7.441c-2.441,2.679-4.524,5.953-6.787,8.631
	c-15.358-18.275-29.764-20.357-41.669-5.953c17.382,3.096,26.847,6.667,31.371,11.905c-20.894,6.906-26.906,16.189-19.644,30.773
	l26.549-20.477l5.953,55.182c-0.711,0.1-1.432,0.1-2.143,0c-0.959-0.381-1.877-0.857-2.738-1.428c-6.362-4.793-15.128-4.793-21.49,0
	c-5.042,2.844-9.651,6.391-13.691,10.535c-10.655,12.322-20.716,25.182-30.835,37.92c-1.735,2.342-3.326,4.787-4.762,7.322h-37.92
	c-12.097-0.16-21.865-9.93-22.025-22.025V123.262c0.128-12.121,9.905-21.924,22.025-22.085h421.756
	c12.098,0.16,21.865,9.928,22.025,22.025L492.357,405.425L492.357,405.425z M169.715,303.454l21.013-6.25l2.917,17.856
	l35.717-28.514c6.31,45.182,13.156,88.816,5.953,133.879c-9.06,0.598-18.057-1.877-25.537-7.025
	c-11.251-8.688-22.025-17.855-32.741-27.383c-1.196-1.568-1.826-3.502-1.786-5.477c-0.774-10.297-0.953-20.656-2.203-30.896
	c-1.25-10.237-3.572-20.18-5.953-32.086l18.87,21.432C197.396,324.884,191.442,313.872,169.715,303.454z"/>
<path fill="#4D83D3" d="M528.55,11.35H144.951c-32.979,0-59.945,20.18-61.552,45.479c15.537,0.595,28.514,1.31,33.038,1.369
	c0.714-11.905,13.156-21.192,28.514-21.192H528.55c15.834,0,28.633,9.941,28.633,22.204v317.046c0,9.822-8.334,17.857-19.822,21.014
	c0,8.273,0,17.146,0,26.252c29.766-3.395,52.803-23.273,52.803-47.326V59.21C590.281,32.899,562.599,11.35,528.55,11.35z"/>
</svg>
