<?xml version="1.0" encoding="utf-8"?>
<!-- Generator: Adobe Illustrator 16.0.0, SVG Export Plug-In . SVG Version: 6.00 Build 0)  -->
<!DOCTYPE svg PUBLIC "-//W3C//DTD SVG 1.1//EN" "http://www.w3.org/Graphics/SVG/1.1/DTD/svg11.dtd">
<svg version="1.1" id="Calque_1" xmlns="http://www.w3.org/2000/svg" xmlns:xlink="http://www.w3.org/1999/xlink" x="0px" y="0px"
	 width="595.281px" height="548px" viewBox="0 0 595.281 548" enable-background="new 0 0 595.281 548" xml:space="preserve">
<g>
	<path fill="#4D83D3" d="M279.046,408.661c0,10.262,8.341,18.598,18.597,18.598c10.26,0,18.598-8.336,18.598-18.598
		c0-10.26-8.338-18.596-18.598-18.596C287.387,390.067,279.046,398.403,279.046,408.661z M306.942,408.661
		c0,5.123-4.176,9.299-9.299,9.299c-5.126,0-9.299-4.176-9.299-9.299c0-5.121,4.171-9.297,9.299-9.297
		C302.768,399.364,306.942,403.54,306.942,408.661z"/>
	<path fill="#4D83D3" d="M562.648,259.906H460.366c-17.943,0-32.545,14.602-32.545,32.544v204.566c0,0.033,0.01,0.063,0.01,0.09
		c0,0.02-0.01,0.037-0.01,0.055v18.598c0,18.254,14.293,32.547,32.545,32.547h102.281c18.253,0,32.544-14.295,32.544-32.547V497.31
		c0-0.037-0.019-0.064-0.019-0.094c0-0.07,0.019-0.127,0.019-0.197V292.45C595.192,274.508,580.59,259.906,562.648,259.906z
		 M562.648,539.005H460.366c-11.516,0-20.807-7.98-22.813-18.834c5.875,5.793,13.929,9.391,22.813,9.391h102.282
		c8.882,0,16.935-3.598,22.81-9.391C583.452,531.022,574.163,539.005,562.648,539.005z M585.893,497.017
		c0,12.82-10.424,23.244-23.244,23.244h-49.416c7.012-0.727,12.514-6.602,12.514-13.803c0-7.688-6.256-13.947-13.947-13.947
		c-7.689,0-13.947,6.26-13.947,13.947c0,7.201,5.502,13.076,12.516,13.803h-49.998c-12.82,0-23.246-10.424-23.246-23.244V292.45
		c0-12.814,10.426-23.246,23.246-23.246h102.283c12.82,0,23.244,10.43,23.244,23.246v204.566H585.893z M511.795,511.11
		c-2.559,0-4.646-2.09-4.646-4.65s2.09-4.646,4.646-4.646c2.563,0,4.65,2.088,4.65,4.646
		C516.446,509.022,514.357,511.11,511.795,511.11z"/>
	<path fill="#4D83D3" d="M571.946,297.245H451.067c-2.57,0-4.648,2.08-4.648,4.65v55.791c0,2.566,2.078,4.646,4.648,4.646h120.879
		c2.568,0,4.648-2.08,4.648-4.646v-55.791C576.596,299.323,574.516,297.245,571.946,297.245z M567.297,353.036h-111.58v-46.492
		h111.58V353.036z"/>
	<path fill="#4D83D3" d="M571.946,371.632H451.067c-2.57,0-4.648,2.08-4.648,4.65v65.088c0,2.57,2.078,4.648,4.648,4.648h120.879
		l0,0l0,0c0.01,0,0.02,0,0.02,0c0.781,0,1.488-0.254,2.135-0.602c0.072-0.033,0.154-0.018,0.229-0.055
		c0.164-0.1,0.254-0.254,0.398-0.363c0.264-0.197,0.51-0.398,0.717-0.652c0.189-0.221,0.336-0.453,0.48-0.707
		c0.146-0.266,0.281-0.52,0.381-0.801c0.102-0.311,0.146-0.617,0.184-0.938c0.018-0.191,0.107-0.346,0.107-0.535v-65.088
		C576.596,373.712,574.516,371.632,571.946,371.632z M455.717,380.933h111.58v43.604l-19.252-32.201
		c-1.688-2.813-6.301-2.813-7.99,0l-19.693,32.945l-9.637-14.52c-1.707-2.598-6.027-2.598-7.732,0l-17.221,25.961h-30.055V380.933
		L455.717,380.933z M496.922,436.724l9.938-14.982l8.217,12.383l-1.555,2.6H496.922L496.922,436.724L496.922,436.724z
		 M524.436,436.569c0.012,0,0.012,0,0.012-0.01l19.604-32.781l19.703,32.945h-39.41L524.436,436.569z"/>
	<path fill="#4D83D3" d="M497.559,287.948h27.896c2.568,0,4.648-2.08,4.648-4.648c0-2.57-2.08-4.649-4.648-4.649h-27.896
		c-2.568,0-4.646,2.079-4.646,4.649C492.911,285.868,494.989,287.948,497.559,287.948z"/>
	<path fill="#4D83D3" d="M469.956,325.142h83.686c2.568,0,4.648-2.08,4.648-4.65s-2.08-4.648-4.648-4.648h-83.686
		c-2.572,0-4.65,2.08-4.65,4.648C465.305,323.062,467.383,325.142,469.956,325.142z"/>
	<path fill="#4D83D3" d="M534.753,334.438h-45.91c-2.57,0-4.646,2.08-4.646,4.65c0,2.566,2.076,4.646,4.646,4.646h45.91
		c2.57,0,4.65-2.08,4.65-4.646C539.403,336.519,537.323,334.438,534.753,334.438z"/>
	<path fill="#4D83D3" d="M571.946,455.319H451.067c-2.57,0-4.648,2.08-4.648,4.646c0,2.57,2.078,4.65,4.648,4.65h120.879
		c2.568,0,4.648-2.08,4.648-4.65C576.596,457.399,574.516,455.319,571.946,455.319z"/>
	<path fill="#4D83D3" d="M571.946,473.915H451.067c-2.57,0-4.648,2.078-4.648,4.648s2.078,4.646,4.648,4.646h120.879
		c2.568,0,4.648-2.076,4.648-4.646S574.516,473.915,571.946,473.915z"/>
	<path fill="#4D83D3" d="M493.2,404.179c0-7.691-6.256-13.947-13.947-13.947s-13.947,6.256-13.947,13.947
		c0,7.689,6.256,13.945,13.947,13.945S493.2,411.868,493.2,404.179z M474.602,404.179c0-2.563,2.092-4.648,4.65-4.648
		s4.648,2.088,4.648,4.648c0,2.559-2.09,4.646-4.648,4.646S474.602,406.739,474.602,404.179z"/>
	<path fill="#4D83D3" d="M107.025,260.051c12.817,0,23.246-10.429,23.246-23.246c0-12.815-10.429-23.246-23.246-23.246
		s-23.246,10.431-23.246,23.246C83.779,249.622,94.209,260.051,107.025,260.051z M107.025,222.858
		c7.691,0,13.947,6.256,13.947,13.946s-6.256,13.949-13.947,13.949s-13.947-6.258-13.947-13.949S99.335,222.858,107.025,222.858z"/>
	<path fill="#4D83D3" d="M539.403,88.03c0-2.569-2.08-4.649-4.65-4.649H60.533c-2.569,0-4.649,2.08-4.649,4.649v74.387
		c0,2.569,2.079,4.649,4.649,4.649h474.22c2.57,0,4.648-2.08,4.648-4.649V88.03H539.403z M530.104,157.77H65.183V92.68h464.919
		L530.104,157.77L530.104,157.77z"/>
	<path fill="#4D83D3" d="M60.533,185.663c-2.569,0-4.649,2.079-4.649,4.649v130.179c0,2.568,2.079,4.648,4.649,4.648h223.163
		c2.569,0,4.649-2.08,4.649-4.648V190.313c0-2.57-2.08-4.649-4.649-4.649L60.533,185.663L60.533,185.663z M213.958,236.038
		l51.872,79.807H162.085L213.958,236.038z M150.993,315.843h-25.98l28.504-42.706l12.78,19.151L150.993,315.843z M279.046,315.843
		h-2.125l-59.064-90.87c-1.716-2.642-6.083-2.642-7.799,0l-38.242,58.835l-14.43-21.626c-0.862-1.293-2.316-2.069-3.868-2.069
		c-1.553,0-3.005,0.776-3.868,2.069l-35.814,53.661H65.183V194.963h213.864L279.046,315.843L279.046,315.843z"/>
	<path fill="#4D83D3" d="M534.753,222.858H311.59c-2.57,0-4.646,2.079-4.646,4.649c0,2.567,2.076,4.647,4.646,4.647h223.163
		c2.57,0,4.648-2.08,4.648-4.647C539.403,224.938,537.323,222.858,534.753,222.858z"/>
	<path fill="#4D83D3" d="M534.753,194.963H311.59c-2.57,0-4.646,2.08-4.646,4.649s2.076,4.649,4.646,4.649h223.163
		c2.57,0,4.648-2.08,4.648-4.649C539.403,197.042,537.323,194.963,534.753,194.963z"/>
	<path fill="#4D83D3" d="M404.575,250.754h-92.984c-2.57,0-4.646,2.079-4.646,4.648c0,2.568,2.076,4.648,4.646,4.648h92.984
		c2.568,0,4.648-2.08,4.648-4.648C409.225,252.832,407.145,250.754,404.575,250.754z"/>
	<path fill="#4D83D3" d="M395.278,278.648H311.59c-2.57,0-4.648,2.079-4.648,4.649c0,2.568,2.078,4.648,4.648,4.648h83.688
		c2.566,0,4.646-2.08,4.646-4.648C399.925,280.728,397.846,278.648,395.278,278.648z"/>
	<path fill="#4D83D3" d="M395.278,306.544H311.59c-2.57,0-4.648,2.08-4.648,4.648c0,2.57,2.078,4.65,4.648,4.65h83.688
		c2.566,0,4.646-2.08,4.646-4.65C399.926,308.622,397.846,306.544,395.278,306.544z"/>
	<path fill="#4D83D3" d="M562.648,8.993H32.638c-18.247,0-32.544,14.297-32.544,32.545v353.258v18.6
		c0,0.018,0.004,0.035,0.004,0.055c0,0.008-0.004,0.018-0.004,0.025v18.598c0,18.252,14.297,32.543,32.544,32.543h198.79
		l-16.499,74.242h-10.27c-2.569,0-4.649,2.08-4.649,4.646c0,2.57,2.08,4.65,4.649,4.65h185.969c2.568,0,4.648-2.08,4.648-4.65
		c0-2.566-2.08-4.646-4.648-4.646h-10.271l-16.498-74.242h31.418c2.568,0,4.646-2.08,4.646-4.648s-2.078-4.648-4.646-4.648H359.01
		c-0.646-0.146-1.309-0.184-1.99-0.035c-0.025,0.01-0.045,0.025-0.08,0.035h-118.59c-0.031-0.01-0.05-0.025-0.082-0.035
		c-0.663-0.137-1.327-0.109-1.961,0.035H32.638c-11.418,0-20.662-7.836-22.784-18.541c5.831,5.686,13.816,9.162,22.784,9.162h362.64
		c2.568,0,4.646-2.078,4.646-4.648s-2.078-4.646-4.646-4.646H32.638c-13.035,0-23.246-10.219-23.246-23.246v-18.6v-14.012h385.884
		c2.568,0,4.646-2.08,4.646-4.646c0-2.57-2.078-4.65-4.646-4.65H9.392V41.541c0-13.035,10.211-23.247,23.246-23.247h530.009
		c13.039,0,23.246,10.211,23.246,23.247v195.268c0,2.568,2.08,4.648,4.648,4.648c2.57,0,4.65-2.08,4.65-4.648V41.538
		C595.192,23.291,580.901,8.993,562.648,8.993z M370.831,538.86H224.459l16.499-74.242h113.367L370.831,538.86z"/>
	<path fill="#4D83D3" d="M562.648,232.156c2.568,0,4.648-2.08,4.648-4.65V41.538c0-2.57-2.08-4.649-4.648-4.649H32.638
		c-2.57,0-4.649,2.079-4.649,4.649v306.848c0,2.568,2.08,4.648,4.649,4.648h362.64c2.568,0,4.646-2.08,4.646-4.648
		s-2.078-4.648-4.646-4.648H37.287V64.784h520.711v162.724C557.999,230.077,560.079,232.156,562.648,232.156z M88.706,55.487H70.109
		H51.512H37.287v-9.299H51.42c-2.57,0-4.604,2.08-4.604,4.649s2.13,4.649,4.695,4.649c2.57,0,4.65-2.08,4.65-4.649
		s-2.08-4.649-4.65-4.649h18.507c-2.569,0-4.604,2.08-4.604,4.649s2.13,4.649,4.695,4.649c2.569,0,4.649-2.08,4.649-4.649
		s-2.08-4.649-4.649-4.649h18.506c-2.569,0-4.604,2.08-4.604,4.649S86.141,55.487,88.706,55.487c2.569,0,4.649-2.08,4.649-4.649
		s-2.08-4.649-4.649-4.649h469.293v9.299L88.706,55.487L88.706,55.487z"/>
	<path fill="#4D83D3" d="M97.727,129.873H497.56c2.57,0,4.648-2.08,4.648-4.649c0-2.569-2.078-4.649-4.648-4.649H97.727
		c-2.569,0-4.649,2.08-4.649,4.649C93.078,127.793,95.157,129.873,97.727,129.873z"/>
</g>
</svg>
